<?xml version="1.0" encoding="utf-8"?>
<!-- Generator: Adobe Illustrator 26.5.0, SVG Export Plug-In . SVG Version: 6.00 Build 0)  -->
<svg version="1.1" id="Capa_1" xmlns="http://www.w3.org/2000/svg" xmlns:xlink="http://www.w3.org/1999/xlink" x="0px" y="0px"
	 viewBox="0 0 1920 1080" style="enable-background:new 0 0 1920 1080;" xml:space="preserve">
<style type="text/css">
	.st0{fill:url(#SVGID_1_);}
	.st1{fill:url(#SVGID_00000049201333248954806060000002257739598101821093_);}
	.st2{fill:url(#SVGID_00000154427126316060506070000008501089892125395342_);}
	.st3{fill:url(#SVGID_00000107583324326834680040000007502027564967463596_);}
	.st4{fill:url(#SVGID_00000065761211281358107280000006905414735165286796_);}
	.st5{fill:url(#SVGID_00000105419962712666416140000014126591208229362588_);}
	.st6{fill:#3B69EE;}
</style>
<linearGradient id="SVGID_1_" gradientUnits="userSpaceOnUse" x1="-402.3166" y1="2088.9912" x2="-178.0234" y2="2088.9912" gradientTransform="matrix(-1 0 0 -1 113.273 2695.8828)">
	<stop  offset="0.4079" style="stop-color:#A18780"/>
	<stop  offset="0.9939" style="stop-color:#FFC38C"/>
</linearGradient>
<polygon class="st0" points="292.8,693.19 584.82,693.19 584.82,520.59 292.8,520.59 "/>
<linearGradient id="SVGID_00000008123732703204953800000007227326281408356793_" gradientUnits="userSpaceOnUse" x1="626.0837" y1="525.3653" x2="893.6744" y2="732.8735">
	<stop  offset="0" style="stop-color:#524A9B"/>
	<stop  offset="0.0652" style="stop-color:#4C519C"/>
	<stop  offset="0.7019" style="stop-color:#1595A2"/>
	<stop  offset="1" style="stop-color:#00B0A4"/>
</linearGradient>
<rect x="586.24" y="520.59" style="fill:url(#SVGID_00000008123732703204953800000007227326281408356793_);" width="290.75" height="173.21"/>
<linearGradient id="SVGID_00000034054331981927701000000014550409416871135649_" gradientUnits="userSpaceOnUse" x1="584.9642" y1="607.1966" x2="813.2975" y2="607.1966">
	<stop  offset="0" style="stop-color:#524A9B"/>
	<stop  offset="0.0652" style="stop-color:#4C519C"/>
	<stop  offset="0.7019" style="stop-color:#1595A2"/>
	<stop  offset="1" style="stop-color:#00B0A4"/>
</linearGradient>
<path style="fill:url(#SVGID_00000034054331981927701000000014550409416871135649_);" d="M726.69,693.8H584.96V520.59h141.73
	c47.83,0,86.61,38.78,86.61,86.61v0C813.3,655.03,774.52,693.8,726.69,693.8z"/>
<linearGradient id="SVGID_00000148657599813416357300000001485336258832748221_" gradientUnits="userSpaceOnUse" x1="574.6486" y1="606.8915" x2="227.5398" y2="606.8915">
	<stop  offset="0" style="stop-color:#A18780"/>
	<stop  offset="0.9939" style="stop-color:#FFC38C"/>
</linearGradient>
<polygon style="fill:url(#SVGID_00000148657599813416357300000001485336258832748221_);" points="584.82,520.59 584.82,520.59 
	421.97,520.59 421.97,577.77 357.39,577.77 357.39,635.56 292.8,635.56 292.8,658.16 292.8,693.19 584.82,693.19 584.82,520.59 "/>
<linearGradient id="SVGID_00000152223615317294315200000018370652539956276136_" gradientUnits="userSpaceOnUse" x1="0" y1="607.1266" x2="292.0173" y2="607.1266">
	<stop  offset="0" style="stop-color:#EF3D00"/>
	<stop  offset="0.9939" style="stop-color:#FF6400"/>
</linearGradient>
<rect y="520.59" style="fill:url(#SVGID_00000152223615317294315200000018370652539956276136_);" width="292.02" height="173.07"/>
<linearGradient id="SVGID_00000008843796306051631240000004133408668947474319_" gradientUnits="userSpaceOnUse" x1="381.806" y1="688.0424" x2="243.8325" y2="640.5676">
	<stop  offset="0" style="stop-color:#EF3D00"/>
	<stop  offset="0.9939" style="stop-color:#FF6400"/>
</linearGradient>
<polygon style="fill:url(#SVGID_00000008843796306051631240000004133408668947474319_);" points="186.32,520.59 186.32,617.4 
	0.64,617.4 0.64,693.66 292.65,693.66 292.65,520.59 "/>
<polygon class="st6" points="2723.38,693.8 877.05,693.8 876.98,520.59 2723.34,520.59 "/>
</svg>
